# xmcd
#
# Track frame offsets:
#	150
#	10471
#	18681
#	29630
#	43497
#	54982
#	67982
#	82269
#	95952
#	107663
#	124101
#	136120
#
# Disc length: 1980 seconds
#
# Revision: 0
# Processed by: cddbd v1.5.2PL0 Copyright (c) Steve Scherf et al.
# Submitted via: audiograbber 1.83.01
#
DISCID=ae07ba0c
DTITLE=bluegrass favorites d2 - 25 greatest
DYEAR=1900
DGENRE=
TTITLE0=cotton eyed joe
TTITLE1=battle of new orleans
TTITLE2=hello darlin
TTITLE3=gentle on my mind
TTITLE4=stand by your man
TTITLE5=i like it, i love it
TTITLE6=coal miners daughter
TTITLE7=he stopped loving her today
TTITLE8=mammas dont let your babies grow up to be cowboys
TTITLE9=lucille
TTITLE10=blue eyes crying in the rain
TTITLE11=will the circle be unbroken
EXTD=
EXTT0=
EXTT1=
EXTT2=
EXTT3=
EXTT4=
EXTT5=
EXTT6=
EXTT7=
EXTT8=
EXTT9=
EXTT10=
EXTT11=
PLAYORDER=
